<svg width="96" height="96" viewBox="0 0 96 96" fill="none" xmlns="http://www.w3.org/2000/svg" role="img" aria-labelledby="logoTitle logoDesc">
  <title id="logoTitle">ArenaEval Logo</title>
  <desc id="logoDesc">A robot face combined with a race flag, star trophy, and speed lines to represent robotics competition.</desc>
  <defs>
    <linearGradient id="bgGradient" x1="13" y1="10" x2="83" y2="89" gradientUnits="userSpaceOnUse">
      <stop stop-color="#58E1FF"/>
      <stop offset="1" stop-color="#3DF2C7"/>
    </linearGradient>
    <linearGradient id="faceGradient" x1="26" y1="26" x2="70" y2="70" gradientUnits="userSpaceOnUse">
      <stop stop-color="#0C1A34"/>
      <stop offset="1" stop-color="#12264C"/>
    </linearGradient>
  </defs>

  <rect x="8" y="8" width="80" height="80" rx="24" fill="url(#bgGradient)"/>

  <g opacity="0.18">
    <path d="M19 67H77" stroke="#061124" stroke-width="3" stroke-linecap="round"/>
    <path d="M19 58H77" stroke="#061124" stroke-width="3" stroke-linecap="round"/>
  </g>

  <rect x="24" y="24" width="48" height="44" rx="13" fill="url(#faceGradient)" stroke="#7EEBFF" stroke-width="2"/>
  <circle cx="38" cy="44" r="6" fill="#0E2041" stroke="#3DF2C7" stroke-width="2"/>
  <circle cx="58" cy="44" r="6" fill="#0E2041" stroke="#3DF2C7" stroke-width="2"/>
  <circle cx="38" cy="44" r="2" fill="#3DF2C7"/>
  <circle cx="58" cy="44" r="2" fill="#3DF2C7"/>
  <rect x="37" y="54" width="22" height="5" rx="2.5" fill="#2ED9B2"/>

  <path d="M48 17L53 24H43L48 17Z" fill="#FFCE54"/>
  <circle cx="48" cy="14" r="3" fill="#FFCE54"/>

  <path d="M67 26V47" stroke="#0A1731" stroke-width="2.5" stroke-linecap="round"/>
  <path d="M68.5 27.5H80.5V40.5H68.5L72.5 36L68.5 31.5V27.5Z" fill="#0F2246" stroke="#A5BDF2" stroke-width="1.4"/>
  <path d="M68.5 27.5H80.5V34H68.5V27.5Z" fill="#E8EEFF"/>
  <path d="M74.5 27.5V40.5" stroke="#A5BDF2" stroke-width="1.2"/>
  <path d="M68.5 34H80.5" stroke="#A5BDF2" stroke-width="1.2"/>

  <path d="M19 35C15 37 15 43 19 45" stroke="#0A1731" stroke-width="2.5" stroke-linecap="round"/>
  <path d="M16 30C10 34 10 46 16 50" stroke="#0A1731" stroke-width="2.5" stroke-linecap="round" opacity="0.8"/>
</svg>
